<?xml version="1.0" standalone="no"?>
<!DOCTYPE svg PUBLIC "-//W3C//DTD SVG 20010904//EN"
 "http://www.w3.org/TR/2001/REC-SVG-20010904/DTD/svg10.dtd">
<svg version="1.0" xmlns="http://www.w3.org/2000/svg"
 width="249.000000pt" height="286.000000pt" viewBox="0 0 249.000000 286.000000"
 preserveAspectRatio="xMidYMid meet">

<g transform="translate(0.000000,286.000000) scale(0.100000,-0.100000)"
fill="#000000" stroke="none">
<path d="M1807 2827 c-90 -121 -139 -190 -143 -201 -6 -16 235 -192 246 -180
4 5 44 59 88 121 l81 112 -32 24 c-18 13 -73 54 -124 90 l-92 67 -24 -33z
m103 -123 l50 -36 -38 -52 -37 -53 -45 31 c-24 17 -48 34 -53 37 -7 5 60 109
70 109 2 0 25 -16 53 -36z"/>
<path d="M2096 2483 c-68 -93 -83 -120 -73 -130 26 -25 222 -163 232 -163 8 1
96 117 157 210 l18 27 -117 84 c-64 46 -120 85 -124 87 -4 2 -46 -50 -93 -115z
m168 -35 c22 -17 43 -33 44 -34 5 -3 -55 -91 -67 -98 -9 -6 -101 55 -101 67 0
14 62 97 73 97 5 0 28 -14 51 -32z"/>
<path d="M1485 2383 c-43 -59 -80 -114 -82 -123 -2 -10 34 -42 109 -95 62 -44
117 -80 124 -80 16 0 183 230 175 242 -13 19 -220 163 -234 163 -8 0 -50 -48
-92 -107z m205 -82 c0 -4 -12 -23 -26 -42 -14 -19 -29 -40 -33 -48 -7 -11 -18
-7 -54 18 -25 17 -49 35 -52 41 -3 5 11 32 30 59 l36 50 50 -35 c27 -20 49
-39 49 -43z"/>
<path d="M1886 2210 l-26 -39 37 -26 c48 -32 54 -31 81 5 28 38 28 44 -5 75
-38 35 -56 32 -87 -15z"/>
<path d="M1034 2136 c-27 -12 -37 -29 -82 -142 -91 -231 -132 -346 -132 -376
0 -35 48 -88 79 -88 60 0 92 41 144 185 74 206 87 235 112 235 18 0 102 -22
173 -45 8 -3 -1 -32 -32 -97 -66 -138 -233 -500 -240 -522 -3 -10 -44 -80 -89
-155 -46 -75 -117 -192 -158 -261 l-75 -125 -59 -19 c-33 -10 -154 -50 -270
-90 -193 -66 -211 -74 -232 -105 -13 -19 -23 -49 -23 -68 0 -49 33 -108 69
-123 35 -14 107 -16 124 -2 7 5 55 23 107 41 52 17 180 62 285 99 l190 67 67
100 c37 55 67 104 67 109 1 11 95 165 101 166 3 0 48 -37 101 -83 53 -45 126
-107 162 -137 36 -30 65 -60 64 -66 -1 -6 -81 -100 -177 -208 -96 -108 -183
-211 -192 -229 -32 -57 -17 -123 38 -166 20 -16 41 -21 86 -21 l60 0 53 58
c104 112 408 458 437 496 38 53 39 118 1 167 -14 19 -93 90 -175 159 -81 69
-148 126 -148 128 0 2 11 18 24 35 13 18 50 88 81 157 31 69 77 169 102 223
l47 97 21 -52 c12 -29 27 -74 34 -100 7 -26 24 -57 37 -69 31 -29 85 -30 118
-3 69 55 286 240 365 310 38 35 44 71 17 122 -18 35 -70 56 -110 46 -14 -3
-56 -33 -93 -66 -37 -33 -96 -82 -130 -109 -72 -57 -59 -67 -126 98 -77 188
-102 230 -155 264 -25 16 -60 33 -77 38 -16 5 -102 30 -190 56 -301 88 -343
96 -401 71z"/>
<path d="M2065 2087 l-28 -40 34 -28 c19 -16 37 -29 41 -29 3 0 20 19 37 42
l31 42 -27 22 c-44 36 -56 35 -88 -9z"/>
<path d="M1916 2066 c-14 -19 -26 -39 -26 -44 0 -13 71 -61 84 -56 6 2 21 20
34 40 l23 35 -33 29 c-18 17 -38 30 -44 30 -6 0 -23 -15 -38 -34z"/>
<path d="M1772 2053 c-10 -16 -22 -33 -26 -40 -4 -8 9 -24 36 -43 l42 -31 23
28 c12 15 22 35 23 44 0 14 -59 69 -74 69 -2 0 -13 -12 -24 -27z"/>
<path d="M1670 2046 c0 -2 8 -10 18 -17 15 -13 16 -12 3 4 -13 16 -21 21 -21
13z"/>
<path d="M1939 1912 l-27 -37 40 -29 41 -29 19 24 c40 51 40 55 3 83 -18 14
-37 26 -42 26 -4 0 -20 -17 -34 -38z"/>
</g>
</svg>
